<svg width="24" height="24" viewBox="0 0 24 24" fill="none" xmlns="http://www.w3.org/2000/svg">
<rect width="24" height="24" fill="#E5E5E5"/>
<rect width="1920" height="6099" transform="translate(-1420 -36)" fill="white"/>
<rect x="-1420" y="-36" width="1920" height="847" fill="#F1F1F1"/>
<path d="M19.7274 20.4471C19.2716 19.1713 18.2672 18.0439 16.8701 17.2399C15.4729 16.4358 13.7611 16 12 16C10.2389 16 8.52706 16.4358 7.12991 17.2399C5.73276 18.0439 4.72839 19.1713 4.27259 20.4471" stroke="#0B0B0B" stroke-width="2" stroke-linecap="round"/>
<circle cx="12" cy="8" r="4" stroke="#0B0B0B" stroke-width="2" stroke-linecap="round"/>
<rect width="1920" height="6099" transform="translate(-1420 -36)" fill="white"/>
<rect x="-1420" y="-36" width="1920" height="847" fill="#F1F1F1"/>
<g clip-path="url(#clip0_0_1)">
<path d="M19.7274 20.4471C19.2716 19.1713 18.2672 18.0439 16.8701 17.2399C15.4729 16.4358 13.7611 16 12 16C10.2389 16 8.52706 16.4358 7.12991 17.2399C5.73276 18.0439 4.72839 19.1713 4.27259 20.4471" stroke="#0B0B0B" stroke-width="2" stroke-linecap="round"/>
<circle cx="12" cy="8" r="4" stroke="#0B0B0B" stroke-width="2" stroke-linecap="round"/>
</g>
<defs>
<clipPath id="clip0_0_1">
<rect width="1318" height="108" fill="white" transform="translate(-1120)"/>
</clipPath>
</defs>
</svg>
